<?xml version="1.0" standalone="no"?>
<!DOCTYPE svg PUBLIC "-//W3C//DTD SVG 20010904//EN"
 "http://www.w3.org/TR/2001/REC-SVG-20010904/DTD/svg10.dtd">
<svg version="1.0" xmlns="http://www.w3.org/2000/svg"
 width="32.000000pt" height="34.000000pt" viewBox="0 0 32.000000 34.000000"
 preserveAspectRatio="xMidYMid meet">

<g transform="translate(0.000000,34.000000) scale(0.100000,-0.100000)"
fill="#000000" stroke="none">
<path d="M139 270 c-11 -37 -14 -39 -57 -42 -25 -2 -47 -9 -50 -15 -2 -7 11
-26 29 -43 32 -29 33 -31 20 -66 -19 -53 -2 -64 47 -31 l39 25 29 -24 c50 -41
74 -27 52 32 -12 35 -12 36 21 63 46 38 38 61 -23 61 -39 0 -45 3 -51 27 -7
30 -23 53 -36 53 -4 0 -14 -18 -20 -40z m65 -52 c6 -4 29 -8 51 -8 43 -1 44 0
-20 -46 -17 -12 -18 -17 -6 -50 16 -45 10 -52 -27 -25 -37 26 -37 26 -74 0
-36 -26 -44 -20 -29 23 12 32 10 34 -25 66 l-37 32 36 0 c52 0 65 8 78 48 l12
37 15 -35 c8 -19 19 -38 26 -42z"/>
</g>
</svg>
